<mxfile host="app.diagrams.net" modified="2020-06-13T14:42:24.511Z" agent="5.0 (Windows)" etag="T86VACvivaB1U_BQpIA9" version="13.2.4" type="github">
  <diagram name="Page-1" id="38b20595-45e3-9b7f-d5ca-b57f44c5b66d">
    <mxGraphModel dx="1422" dy="791" grid="1" gridSize="10" guides="1" tooltips="1" connect="1" arrows="1" fold="1" page="1" pageScale="1" pageWidth="1100" pageHeight="850" background="#ffffff" math="0" shadow="0">
      <root>
        <mxCell id="0" />
        <mxCell id="1" parent="0" />
        <mxCell id="48ef80bc37b76060-121" value="" style="verticalLabelPosition=bottom;html=1;verticalAlign=top;align=center;strokeWidth=1;shape=mxgraph.floorplan.office_chair;fillColor=#ffffff;strokeColor=#000000;shadow=0;direction=south;rounded=0;comic=0;fontFamily=Verdana;fontSize=12;" parent="1" vertex="1">
          <mxGeometry x="1050" y="647" width="34" height="40" as="geometry" />
        </mxCell>
        <mxCell id="48ef80bc37b76060-127" value="" style="verticalLabelPosition=bottom;html=1;verticalAlign=top;align=center;strokeWidth=1;shape=mxgraph.floorplan.wallCorner;fillColor=#000000;rounded=0;shadow=0;comic=0;fontFamily=Verdana;fontSize=12;" parent="1" vertex="1">
          <mxGeometry x="380" y="247" width="113" height="713" as="geometry" />
        </mxCell>
        <mxCell id="48ef80bc37b76060-128" value="" style="verticalLabelPosition=bottom;html=1;verticalAlign=top;align=center;strokeWidth=1;shape=mxgraph.floorplan.wallU;fillColor=#000000;rounded=0;shadow=0;comic=0;fontFamily=Verdana;fontSize=12;rotation=90;" parent="1" vertex="1">
          <mxGeometry x="380.76" y="247.63" width="718.87" height="716.62" as="geometry" />
        </mxCell>
        <mxCell id="48ef80bc37b76060-130" value="" style="verticalLabelPosition=bottom;html=1;verticalAlign=top;align=center;strokeWidth=1;shape=mxgraph.floorplan.wallU;fillColor=#000000;rounded=0;shadow=0;comic=0;fontFamily=Verdana;fontSize=12;rotation=90;" parent="1" vertex="1">
          <mxGeometry x="749.38" y="615.63" width="374.88" height="323.87" as="geometry" />
        </mxCell>
        <mxCell id="48ef80bc37b76060-258" value="" style="verticalLabelPosition=bottom;html=1;verticalAlign=top;align=center;strokeWidth=1;shape=mxgraph.floorplan.wallCorner;fillColor=#000000;direction=west;rounded=0;shadow=0;comic=0;fontFamily=Verdana;fontSize=12;" parent="1" vertex="1">
          <mxGeometry x="387" y="595" width="300" height="12" as="geometry" />
        </mxCell>
        <mxCell id="48ef80bc37b76060-261" value="" style="verticalLabelPosition=bottom;html=1;verticalAlign=top;align=center;strokeWidth=1;shape=mxgraph.floorplan.doorLeft;rounded=0;shadow=0;comic=0;fontFamily=Verdana;fontSize=12;rotation=90;flipH=1;" parent="1" vertex="1">
          <mxGeometry x="612" y="520" width="64" height="85" as="geometry" />
        </mxCell>
        <mxCell id="48ef80bc37b76060-265" value="" style="group;rotation=90;" parent="1" vertex="1" connectable="0">
          <mxGeometry x="706.5" y="407" width="134.46000000000004" height="117.43" as="geometry" />
        </mxCell>
        <mxCell id="48ef80bc37b76060-100" value="" style="verticalLabelPosition=bottom;html=1;verticalAlign=top;align=center;strokeWidth=1;shape=mxgraph.floorplan.office_chair;shadow=0;rounded=0;comic=0;fontFamily=Verdana;fontSize=12;rotation=90;" parent="48ef80bc37b76060-265" vertex="1">
          <mxGeometry x="25.99622272002517" y="32.434906270200386" width="22.875" height="28.41071428571428" as="geometry" />
        </mxCell>
        <mxCell id="48ef80bc37b76060-104" value="" style="verticalLabelPosition=bottom;html=1;verticalAlign=top;align=center;strokeWidth=1;shape=mxgraph.floorplan.office_chair;shadow=0;rounded=0;comic=0;fontFamily=Verdana;fontSize=12;rotation=90;" parent="48ef80bc37b76060-265" vertex="1">
          <mxGeometry x="25.99622272002517" y="72.07776341305754" width="22.875" height="28.41071428571428" as="geometry" />
        </mxCell>
        <mxCell id="48ef80bc37b76060-106" value="" style="shape=rect;shadow=0;rounded=0;comic=0;fontFamily=Verdana;fontSize=12;align=center;html=1;rotation=90;" parent="48ef80bc37b76060-265" vertex="1">
          <mxGeometry x="-34.650837209302324" y="32.28" width="89.10823255813953" height="64.9" as="geometry" />
        </mxCell>
        <mxCell id="Ew-Wta1iFRSx9hUNfACi-24" style="edgeStyle=orthogonalEdgeStyle;rounded=0;orthogonalLoop=1;jettySize=auto;html=1;exitX=1;exitY=0.75;exitDx=0;exitDy=0;entryX=1;entryY=0.5;entryDx=0;entryDy=0;" edge="1" parent="48ef80bc37b76060-265" source="48ef80bc37b76060-106" target="48ef80bc37b76060-106">
          <mxGeometry relative="1" as="geometry" />
        </mxCell>
        <mxCell id="Ew-Wta1iFRSx9hUNfACi-52" value="" style="verticalLabelPosition=bottom;html=1;verticalAlign=top;align=center;shape=mxgraph.floorplan.wall;fillColor=#000000;" vertex="1" parent="48ef80bc37b76060-265">
          <mxGeometry x="-22.56" y="103" width="72.56" height="10" as="geometry" />
        </mxCell>
        <mxCell id="Ew-Wta1iFRSx9hUNfACi-53" value="" style="verticalLabelPosition=bottom;html=1;verticalAlign=top;align=center;strokeWidth=1;shape=mxgraph.floorplan.doorRight;rounded=0;shadow=0;comic=0;fontFamily=Verdana;fontSize=12;flipV=1;" vertex="1" parent="48ef80bc37b76060-265">
          <mxGeometry x="54.460000000000036" y="28.000000000000007" width="80" height="85" as="geometry" />
        </mxCell>
        <mxCell id="48ef80bc37b76060-273" value="" style="group;rotation=0;" parent="1" vertex="1" connectable="0">
          <mxGeometry x="470" y="270" width="220" height="250" as="geometry" />
        </mxCell>
        <mxCell id="48ef80bc37b76060-268" value="" style="verticalLabelPosition=bottom;html=1;verticalAlign=top;align=center;strokeWidth=1;shape=mxgraph.floorplan.office_chair;shadow=0;rounded=0;comic=0;fontFamily=Verdana;fontSize=12;rotation=-180;" parent="48ef80bc37b76060-273" vertex="1">
          <mxGeometry x="73.62173378049076" y="42.871734222126655" width="40.34067604410452" height="63.568433501773995" as="geometry" />
        </mxCell>
        <mxCell id="48ef80bc37b76060-269" value="" style="shape=rect;shadow=0;rounded=0;comic=0;fontFamily=Verdana;fontSize=12;align=center;html=1;rotation=-180;" parent="48ef80bc37b76060-273" vertex="1">
          <mxGeometry x="2.0170338022052263" y="1.4783356628319535" width="188.59266050618865" height="73.91678314159768" as="geometry" />
        </mxCell>
        <mxCell id="48ef80bc37b76060-270" value="" style="verticalLabelPosition=bottom;html=1;verticalAlign=top;align=center;strokeWidth=1;shape=mxgraph.floorplan.workstation;shadow=0;flipV=1;rounded=0;comic=0;fontFamily=Verdana;fontSize=12;rotation=-180;" parent="48ef80bc37b76060-273" vertex="1">
          <mxGeometry x="69.58766617608029" width="50.425845055130665" height="59.13342651327814" as="geometry" />
        </mxCell>
        <mxCell id="48ef80bc37b76060-271" value="" style="verticalLabelPosition=bottom;html=1;verticalAlign=top;align=center;strokeWidth=1;shape=mxgraph.floorplan.flat_tv;rounded=0;shadow=0;comic=0;fontFamily=Verdana;fontSize=12;rotation=-395;" parent="48ef80bc37b76060-273" vertex="1">
          <mxGeometry y="31.045048919471025" width="70.59618307718291" height="14.783356628319535" as="geometry" />
        </mxCell>
        <mxCell id="48ef80bc37b76060-272" value="" style="verticalLabelPosition=bottom;html=1;verticalAlign=top;align=center;strokeWidth=1;shape=mxgraph.floorplan.flat_tv;rounded=0;shadow=0;comic=0;fontFamily=Verdana;fontSize=12;rotation=-330;" parent="48ef80bc37b76060-273" vertex="1">
          <mxGeometry x="122.03054503341617" y="32.523384582302974" width="70.59618307718291" height="14.783356628319535" as="geometry" />
        </mxCell>
        <mxCell id="48ef80bc37b76060-260" value="" style="verticalLabelPosition=bottom;html=1;verticalAlign=top;align=center;strokeWidth=1;shape=mxgraph.floorplan.wall;fillColor=#000000;direction=south;rounded=0;shadow=0;comic=0;fontFamily=Verdana;fontSize=12;" parent="48ef80bc37b76060-273" vertex="1">
          <mxGeometry x="209.86175115207374" y="-16.221374045801525" width="10.138248847926267" height="266.22137404580155" as="geometry" />
        </mxCell>
        <mxCell id="48ef80bc37b76060-275" value="" style="verticalLabelPosition=bottom;html=1;verticalAlign=top;align=center;strokeWidth=1;shape=mxgraph.floorplan.dresser;rounded=0;shadow=0;comic=0;fontFamily=Verdana;fontSize=12;rotation=90;" parent="1" vertex="1">
          <mxGeometry x="838" y="432.5" width="100" height="65" as="geometry" />
        </mxCell>
        <mxCell id="48ef80bc37b76060-316" value="" style="verticalLabelPosition=bottom;html=1;verticalAlign=top;align=center;strokeWidth=1;shape=mxgraph.floorplan.doorRight;rounded=0;shadow=0;comic=0;fontFamily=Verdana;fontSize=12;flipV=1;" parent="1" vertex="1">
          <mxGeometry x="1019" y="436.88" width="80" height="85" as="geometry" />
        </mxCell>
        <mxCell id="48ef80bc37b76060-317" value="" style="verticalLabelPosition=bottom;html=1;verticalAlign=top;align=center;strokeWidth=1;shape=mxgraph.floorplan.wall;fillColor=#000000;rounded=0;shadow=0;comic=0;fontFamily=Verdana;fontSize=12;" parent="1" vertex="1">
          <mxGeometry x="916" y="512" width="104" height="10" as="geometry" />
        </mxCell>
        <mxCell id="48ef80bc37b76060-318" value="" style="verticalLabelPosition=bottom;html=1;verticalAlign=top;align=center;strokeWidth=1;shape=mxgraph.floorplan.wall;fillColor=#000000;direction=south;rounded=0;shadow=0;comic=0;fontFamily=Verdana;fontSize=12;" parent="1" vertex="1">
          <mxGeometry x="772" y="596" width="10" height="364" as="geometry" />
        </mxCell>
        <mxCell id="48ef80bc37b76060-326" value="" style="verticalLabelPosition=bottom;html=1;verticalAlign=top;align=center;strokeWidth=1;shape=mxgraph.floorplan.wall;fillColor=#000000;rounded=0;shadow=0;comic=0;fontFamily=Verdana;fontSize=12;direction=south;" parent="1" vertex="1">
          <mxGeometry x="916" y="250" width="10" height="272" as="geometry" />
        </mxCell>
        <mxCell id="48ef80bc37b76060-327" value="" style="verticalLabelPosition=bottom;html=1;verticalAlign=top;align=center;strokeWidth=1;shape=mxgraph.floorplan.wall;fillColor=#000000;direction=south;rounded=0;shadow=0;comic=0;fontFamily=Verdana;fontSize=12;" parent="1" vertex="1">
          <mxGeometry x="1090" y="247" width="10" height="273" as="geometry" />
        </mxCell>
        <mxCell id="48ef80bc37b76060-332" value="" style="verticalLabelPosition=bottom;html=1;verticalAlign=top;align=center;strokeWidth=1;shape=mxgraph.floorplan.dresser;rounded=0;shadow=0;comic=0;fontFamily=Verdana;fontSize=12;rotation=-90;" parent="1" vertex="1">
          <mxGeometry x="306.75" y="442.5" width="234.75" height="65" as="geometry" />
        </mxCell>
        <mxCell id="48ef80bc37b76060-341" value="" style="verticalLabelPosition=bottom;html=1;verticalAlign=top;align=center;strokeWidth=1;shape=mxgraph.floorplan.doorLeft;rounded=0;shadow=0;comic=0;fontFamily=Verdana;fontSize=12;rotation=-90;direction=south;" parent="1" vertex="1">
          <mxGeometry x="1005" y="596" width="85" height="80" as="geometry" />
        </mxCell>
        <mxCell id="48ef80bc37b76060-343" value="" style="verticalLabelPosition=bottom;html=1;verticalAlign=top;align=center;strokeWidth=1;shape=mxgraph.floorplan.toilet;rounded=0;shadow=0;comic=0;fontFamily=Verdana;fontSize=12;rotation=-90;" parent="1" vertex="1">
          <mxGeometry x="938" y="260.3" width="50" height="67" as="geometry" />
        </mxCell>
        <mxCell id="48ef80bc37b76060-354" value="" style="verticalLabelPosition=bottom;html=1;verticalAlign=top;align=center;strokeWidth=1;shape=mxgraph.floorplan.sink_2;rounded=0;shadow=0;comic=0;fontFamily=Verdana;fontSize=12;rotation=90;" parent="1" vertex="1">
          <mxGeometry x="1050" y="380" width="40" height="35" as="geometry" />
        </mxCell>
        <mxCell id="48ef80bc37b76060-390" value="" style="verticalLabelPosition=bottom;html=1;verticalAlign=top;align=center;strokeWidth=1;shape=mxgraph.floorplan.dresser;rounded=0;shadow=0;comic=0;fontFamily=Verdana;fontSize=12;flipV=1;direction=south;" parent="1" vertex="1">
          <mxGeometry x="707" y="687" width="65" height="100" as="geometry" />
        </mxCell>
        <mxCell id="Ew-Wta1iFRSx9hUNfACi-9" value="" style="verticalLabelPosition=bottom;html=1;verticalAlign=top;align=center;shape=mxgraph.floorplan.laptop;" vertex="1" parent="1">
          <mxGeometry x="406" y="284.3" width="40" height="35" as="geometry" />
        </mxCell>
        <mxCell id="Ew-Wta1iFRSx9hUNfACi-14" value="" style="verticalLabelPosition=bottom;html=1;verticalAlign=top;align=center;shape=mxgraph.floorplan.laptop;" vertex="1" parent="1">
          <mxGeometry x="526" y="284.3" width="40" height="35" as="geometry" />
        </mxCell>
        <mxCell id="Ew-Wta1iFRSx9hUNfACi-11" value="" style="verticalLabelPosition=bottom;html=1;verticalAlign=top;align=center;strokeWidth=1;shape=mxgraph.floorplan.dresser;rounded=0;shadow=0;comic=0;fontFamily=Verdana;fontSize=12;rotation=-90;direction=west;" vertex="1" parent="1">
          <mxGeometry x="576.5" y="410" width="146.5" height="58" as="geometry" />
        </mxCell>
        <mxCell id="Ew-Wta1iFRSx9hUNfACi-12" value="" style="verticalLabelPosition=bottom;html=1;verticalAlign=top;align=center;shape=mxgraph.floorplan.printer;direction=west;" vertex="1" parent="1">
          <mxGeometry x="637.75" y="455.88" width="40" height="47" as="geometry" />
        </mxCell>
        <mxCell id="Ew-Wta1iFRSx9hUNfACi-13" value="" style="verticalLabelPosition=bottom;html=1;verticalAlign=top;align=center;strokeWidth=1;shape=mxgraph.floorplan.plant;rounded=0;shadow=0;comic=0;fontFamily=Verdana;fontSize=12;" vertex="1" parent="1">
          <mxGeometry x="399" y="888.5" width="47" height="51" as="geometry" />
        </mxCell>
        <mxCell id="Ew-Wta1iFRSx9hUNfACi-17" value="" style="verticalLabelPosition=bottom;html=1;verticalAlign=top;align=center;strokeWidth=1;shape=mxgraph.floorplan.dresser;rounded=0;shadow=0;comic=0;fontFamily=Verdana;fontSize=12;rotation=-90;" vertex="1" parent="1">
          <mxGeometry x="641.75" y="303" width="164.25" height="73" as="geometry" />
        </mxCell>
        <mxCell id="Ew-Wta1iFRSx9hUNfACi-18" value="" style="verticalLabelPosition=bottom;html=1;verticalAlign=top;align=center;shape=mxgraph.floorplan.windowBay;strokeWidth=3;aspect=fixed;" vertex="1" parent="1">
          <mxGeometry x="732" y="250" width="175" height="70" as="geometry" />
        </mxCell>
        <mxCell id="Ew-Wta1iFRSx9hUNfACi-26" value="" style="verticalLabelPosition=bottom;html=1;verticalAlign=top;align=center;strokeWidth=1;shape=mxgraph.floorplan.dresser;rounded=0;shadow=0;comic=0;fontFamily=Verdana;fontSize=12;rotation=90;" vertex="1" parent="1">
          <mxGeometry x="838" y="335.5" width="100" height="65.5" as="geometry" />
        </mxCell>
        <mxCell id="Ew-Wta1iFRSx9hUNfACi-27" value="" style="verticalLabelPosition=bottom;html=1;verticalAlign=top;align=center;strokeWidth=1;shape=mxgraph.floorplan.dresser;rounded=0;shadow=0;comic=0;fontFamily=Verdana;fontSize=12;rotation=90;" vertex="1" parent="1">
          <mxGeometry x="1020" y="285.8" width="97" height="41.5" as="geometry" />
        </mxCell>
        <mxCell id="Ew-Wta1iFRSx9hUNfACi-56" value="" style="edgeStyle=orthogonalEdgeStyle;rounded=0;orthogonalLoop=1;jettySize=auto;html=1;" edge="1" parent="1" source="Ew-Wta1iFRSx9hUNfACi-30">
          <mxGeometry relative="1" as="geometry">
            <mxPoint x="996.5" y="240" as="targetPoint" />
          </mxGeometry>
        </mxCell>
        <mxCell id="Ew-Wta1iFRSx9hUNfACi-30" value="" style="verticalLabelPosition=bottom;html=1;verticalAlign=top;align=center;strokeWidth=1;shape=mxgraph.floorplan.sink_double;rounded=0;shadow=0;comic=0;fontFamily=Verdana;fontSize=12;flipV=1;direction=south;" vertex="1" parent="1">
          <mxGeometry x="881" y="321" width="35" height="80" as="geometry" />
        </mxCell>
        <mxCell id="Ew-Wta1iFRSx9hUNfACi-31" value="" style="verticalLabelPosition=bottom;html=1;verticalAlign=top;align=center;strokeWidth=1;shape=mxgraph.floorplan.doorLeft;rounded=0;shadow=0;comic=0;fontFamily=Verdana;fontSize=12;rotation=-90;direction=south;" vertex="1" parent="1">
          <mxGeometry x="687" y="599" width="85" height="80" as="geometry" />
        </mxCell>
        <mxCell id="Ew-Wta1iFRSx9hUNfACi-33" value="" style="verticalLabelPosition=bottom;html=1;verticalAlign=top;align=center;shape=mxgraph.floorplan.sofa;direction=east;" vertex="1" parent="1">
          <mxGeometry x="448.25" y="607" width="230" height="80" as="geometry" />
        </mxCell>
        <mxCell id="Ew-Wta1iFRSx9hUNfACi-34" value="" style="verticalLabelPosition=bottom;html=1;verticalAlign=top;align=center;shape=mxgraph.floorplan.sofa;direction=north;" vertex="1" parent="1">
          <mxGeometry x="387" y="607" width="100" height="230" as="geometry" />
        </mxCell>
        <mxCell id="Ew-Wta1iFRSx9hUNfACi-36" value="" style="verticalLabelPosition=bottom;html=1;verticalAlign=top;align=center;shape=mxgraph.floorplan.window;" vertex="1" parent="1">
          <mxGeometry x="440" y="248" width="220" height="10" as="geometry" />
        </mxCell>
        <mxCell id="Ew-Wta1iFRSx9hUNfACi-37" value="" style="verticalLabelPosition=bottom;html=1;verticalAlign=top;align=center;shape=mxgraph.floorplan.window;" vertex="1" parent="1">
          <mxGeometry x="754.5" y="247" width="130" height="10" as="geometry" />
        </mxCell>
        <mxCell id="Ew-Wta1iFRSx9hUNfACi-38" value="" style="verticalLabelPosition=bottom;html=1;verticalAlign=top;align=center;shape=mxgraph.floorplan.window;" vertex="1" parent="1">
          <mxGeometry x="976" y="246" width="74" height="10" as="geometry" />
        </mxCell>
        <mxCell id="Ew-Wta1iFRSx9hUNfACi-39" value="" style="verticalLabelPosition=bottom;html=1;verticalAlign=top;align=center;shape=mxgraph.floorplan.window;" vertex="1" parent="1">
          <mxGeometry x="403" y="954.25" width="157" height="10" as="geometry" />
        </mxCell>
        <mxCell id="Ew-Wta1iFRSx9hUNfACi-40" value="" style="verticalLabelPosition=bottom;html=1;verticalAlign=top;align=center;shape=mxgraph.floorplan.window;" vertex="1" parent="1">
          <mxGeometry x="604" y="954.25" width="157" height="10" as="geometry" />
        </mxCell>
        <mxCell id="Ew-Wta1iFRSx9hUNfACi-41" value="" style="verticalLabelPosition=bottom;html=1;verticalAlign=top;align=center;shape=mxgraph.floorplan.window;" vertex="1" parent="1">
          <mxGeometry x="868.75" y="954.25" width="157" height="10" as="geometry" />
        </mxCell>
        <mxCell id="Ew-Wta1iFRSx9hUNfACi-42" value="" style="verticalLabelPosition=bottom;html=1;verticalAlign=top;align=center;strokeWidth=1;shape=mxgraph.floorplan.dresser;rounded=0;shadow=0;comic=0;fontFamily=Verdana;fontSize=12;flipV=1;direction=south;" vertex="1" parent="1">
          <mxGeometry x="707.7" y="787" width="65" height="100" as="geometry" />
        </mxCell>
        <mxCell id="Ew-Wta1iFRSx9hUNfACi-43" value="" style="verticalLabelPosition=bottom;html=1;verticalAlign=top;align=center;shape=mxgraph.floorplan.table;" vertex="1" parent="1">
          <mxGeometry x="526" y="707" width="90" height="80" as="geometry" />
        </mxCell>
        <mxCell id="Ew-Wta1iFRSx9hUNfACi-45" value="" style="verticalLabelPosition=bottom;html=1;verticalAlign=top;align=center;shape=mxgraph.floorplan.bed_double;direction=south;" vertex="1" parent="1">
          <mxGeometry x="905.5" y="700" width="180" height="200" as="geometry" />
        </mxCell>
        <mxCell id="Ew-Wta1iFRSx9hUNfACi-46" value="" style="verticalLabelPosition=bottom;html=1;verticalAlign=top;align=center;strokeWidth=1;shape=mxgraph.floorplan.dresser;rounded=0;shadow=0;comic=0;fontFamily=Verdana;fontSize=12;flipV=1;direction=north;" vertex="1" parent="1">
          <mxGeometry x="782" y="599" width="65" height="100" as="geometry" />
        </mxCell>
        <mxCell id="Ew-Wta1iFRSx9hUNfACi-47" value="" style="verticalLabelPosition=bottom;html=1;verticalAlign=top;align=center;strokeWidth=1;shape=mxgraph.floorplan.dresser;rounded=0;shadow=0;comic=0;fontFamily=Verdana;fontSize=12;flipV=1;direction=north;" vertex="1" parent="1">
          <mxGeometry x="782" y="700" width="65" height="100" as="geometry" />
        </mxCell>
        <mxCell id="Ew-Wta1iFRSx9hUNfACi-48" value="" style="verticalLabelPosition=bottom;html=1;verticalAlign=top;align=center;strokeWidth=1;shape=mxgraph.floorplan.dresser;rounded=0;shadow=0;comic=0;fontFamily=Verdana;fontSize=12;flipV=1;direction=north;" vertex="1" parent="1">
          <mxGeometry x="782" y="800" width="65" height="100" as="geometry" />
        </mxCell>
        <mxCell id="Ew-Wta1iFRSx9hUNfACi-50" value="" style="verticalLabelPosition=bottom;html=1;verticalAlign=top;align=center;shape=mxgraph.floorplan.doorRight;aspect=fixed;direction=south;" vertex="1" parent="1">
          <mxGeometry x="1014" y="520" width="79.69" height="75" as="geometry" />
        </mxCell>
        <mxCell id="Ew-Wta1iFRSx9hUNfACi-51" value="" style="verticalLabelPosition=bottom;html=1;verticalAlign=top;align=center;shape=mxgraph.floorplan.wall;fillColor=#000000;" vertex="1" parent="1">
          <mxGeometry x="840" y="511.88" width="76" height="10" as="geometry" />
        </mxCell>
        <mxCell id="Ew-Wta1iFRSx9hUNfACi-54" value="" style="verticalLabelPosition=bottom;html=1;verticalAlign=top;align=center;shape=mxgraph.floorplan.crt_tv;direction=south;" vertex="1" parent="1">
          <mxGeometry x="732" y="727" width="40" height="60" as="geometry" />
        </mxCell>
      </root>
    </mxGraphModel>
  </diagram>
</mxfile>
